#N canvas 375 0 1545 956 12;
#X obj 622 -899 netreceive -b -u;
#X msg 622 -938 listen 5005;
#X obj 652 -860 oscparse;
#X obj 677 -791 route list;
#X obj 691 -751 route cell;
#X text -99 -498 comment;
#X obj 858 -573 route brightness;
#X obj 982 -572 route brightness;
#X obj 1103 -572 route brightness;
#X obj 1239 -571 route brightness;
#X obj 388 -602 route brightness;
#X obj 512 -601 route brightness;
#X obj 633 -601 route brightness;
#X obj 769 -600 route brightness;
#X obj 852 -445 route brightness;
#X obj 976 -444 route brightness;
#X obj 1099 -443 route brightness;
#X obj 1233 -443 route brightness;
#X obj 382 -474 route brightness;
#X obj 506 -473 route brightness;
#X obj 627 -473 route brightness;
#X obj 763 -472 route brightness;
#X text 730 1026 comment;
#X text -115 -1191 comment;
#X obj 386 -346 print a;
#X obj 677 -329 print b;
#X obj 917 -335 print c;
#X obj 1179 -345 print d;
#X obj 434 -401 expr ($f1 + $f2 + $f3 + $f4) / 4;
#X obj 711 -394 expr ($f1 + $f2 + $f3 + $f4) / 4;
#X obj 966 -400 expr ($f1 + $f2 + $f3 + $f4) / 4;
#X obj 1236 -404 expr ($f1 + $f2 + $f3 + $f4) / 4;
#X obj 168 121 *~;
#X floatatom 50 -278 5 0 0 0 - - - 0;
#X obj 403 -193 vsl 19 162 0 0.01 0 0 empty empty empty 0 -9 0 12 #fcfcfc #000000 #000000 0 1;
#X obj -31 -368 hsl 162 19 0 127 0 0 empty empty empty -2 -10 0 12 #fcfcfc #000000 #000000 0 1;
#X obj 146 58 *~;
#X obj 191 32 vline~;
#X obj 53 -213 phasor~;
#X obj 39 0 bob~;
#X obj 103 -96 loadbang;
#X obj 50 -162 expr~ $v1 *2 - 1;
#X obj 203 -424 hsl 162 19 0 500 0 0 empty empty empty -2 -10 0 12 #fcfcfc #000000 #000000 0 1;
#X msg 98 -59 1;
#X msg 162 -32 100 5 \, 50 200 100;
#X floatatom 115 -270 5 0 1 0 - - - 0;
#X msg 54 -65 300;
#X obj 179 449 dac~;
#X obj 104 311 *~ 1;
#X obj 203 319 *~ 1;
#X obj 589 -133 expr if($f1>$f2 && $f1>$f3 && $f1>$f4 \, 0 \, 0);
#X floatatom 265 166 5 0 0 0 - - - 0;
#X floatatom 565 55 5 0 0 0 - - - 0;
#X floatatom 610 54 5 0 0 0 - - - 0;
#X floatatom 668 70 5 0 0 0 - - - 0;
#X floatatom 733 77 5 0 0 0 - - - 0;
#X obj 502 6 print;
#X obj 619 -70 expr if($f2>$f1 && $f2>$f3 && $f2>$f4 \, 3 \, 0);
#X obj 629 -12 expr if($f3>$f1 && $f3>$f2 && $f3>$f4 \, 6 \, 0);
#X obj 713 29 expr if($f4>$f1 && $f4>$f2 && $f4>$f3 \, 10 \, 0);
#X obj 481 -160 t b;
#X obj 545 119 expr ($f1 + $f2 + $f3 + $f4)/10;
#X floatatom 196 167 5 0 0 0 - - - 0;
#X obj 300 206 expr 1 - $f1;
#X obj 205 -343 loadbang;
#X obj 594 -664 route 0;
#X obj 500 -633 route 0;
#X obj 564 -634 route 1;
#X obj 631 -633 route 2;
#X obj 720 -635 route 3;
#X obj 1064 -635 route 1;
#X obj 970 -604 route 0;
#X obj 1034 -605 route 1;
#X obj 1100 -604 route 2;
#X obj 1190 -606 route 3;
#X obj 588 -536 route 2;
#X obj 494 -505 route 0;
#X obj 558 -506 route 1;
#X obj 627 -505 route 2;
#X obj 714 -507 route 3;
#X obj 1058 -507 route 4;
#X obj 964 -476 route 0;
#X obj 1028 -477 route 1;
#X obj 1095 -476 route 2;
#X obj 1183 -477 route 3;
#X connect 0 0 2 0;
#X connect 1 0 0 0;
#X connect 2 0 3 0;
#X connect 3 0 4 0;
#X connect 4 0 65 0;
#X connect 4 0 70 0;
#X connect 4 0 75 0;
#X connect 4 0 80 0;
#X connect 6 0 28 2;
#X connect 7 0 29 1;
#X connect 8 0 30 1;
#X connect 9 0 31 1;
#X connect 10 0 28 0;
#X connect 11 0 29 0;
#X connect 12 0 30 0;
#X connect 13 0 31 0;
#X connect 14 0 28 3;
#X connect 15 0 29 3;
#X connect 16 0 30 3;
#X connect 17 0 31 3;
#X connect 18 0 28 1;
#X connect 19 0 29 2;
#X connect 20 0 30 2;
#X connect 21 0 31 2;
#X connect 28 0 24 0;
#X connect 28 0 50 0;
#X connect 28 0 57 0;
#X connect 28 0 58 0;
#X connect 28 0 59 0;
#X connect 28 0 60 0;
#X connect 29 0 25 0;
#X connect 29 0 50 1;
#X connect 29 0 57 1;
#X connect 29 0 58 1;
#X connect 29 0 59 1;
#X connect 29 0 60 0;
#X connect 30 0 26 0;
#X connect 30 0 50 2;
#X connect 30 0 57 2;
#X connect 30 0 58 2;
#X connect 30 0 59 2;
#X connect 30 0 60 0;
#X connect 31 0 27 0;
#X connect 31 0 50 3;
#X connect 31 0 57 3;
#X connect 31 0 58 3;
#X connect 31 0 59 3;
#X connect 31 0 60 0;
#X connect 32 0 48 0;
#X connect 32 0 49 0;
#X connect 33 0 38 0;
#X connect 34 0 32 1;
#X connect 35 0 33 0;
#X connect 36 0 32 0;
#X connect 37 0 36 1;
#X connect 38 0 41 0;
#X connect 39 0 36 0;
#X connect 40 0 43 0;
#X connect 40 0 46 0;
#X connect 41 0 39 0;
#X connect 42 0 45 0;
#X connect 43 0 39 2;
#X connect 44 0 37 0;
#X connect 45 0 38 1;
#X connect 46 0 39 1;
#X connect 48 0 47 0;
#X connect 49 0 47 1;
#X connect 50 0 52 0;
#X connect 51 0 63 0;
#X connect 51 0 49 1;
#X connect 52 0 61 0;
#X connect 53 0 61 1;
#X connect 54 0 61 2;
#X connect 55 0 61 3;
#X connect 57 0 53 0;
#X connect 57 0 56 0;
#X connect 58 0 54 0;
#X connect 58 0 56 0;
#X connect 59 0 55 0;
#X connect 59 0 56 0;
#X connect 60 0 57 0;
#X connect 60 0 50 0;
#X connect 60 0 58 0;
#X connect 60 0 59 0;
#X connect 60 0 62 0;
#X connect 61 0 51 0;
#X connect 62 0 48 1;
#X connect 63 0 62 0;
#X connect 64 0 33 0;
#X connect 64 0 45 0;
#X connect 64 0 44 0;
#X connect 65 0 66 0;
#X connect 65 0 67 0;
#X connect 65 0 68 0;
#X connect 65 0 69 0;
#X connect 66 0 10 0;
#X connect 67 0 11 0;
#X connect 68 0 12 0;
#X connect 69 0 13 0;
#X connect 70 0 71 0;
#X connect 70 0 72 0;
#X connect 70 0 73 0;
#X connect 70 0 74 0;
#X connect 71 0 6 0;
#X connect 72 0 7 0;
#X connect 73 0 8 0;
#X connect 74 0 9 0;
#X connect 75 0 76 0;
#X connect 75 0 77 0;
#X connect 75 0 78 0;
#X connect 75 0 79 0;
#X connect 76 0 18 0;
#X connect 77 0 19 0;
#X connect 78 0 20 0;
#X connect 79 0 21 0;
#X connect 80 0 81 0;
#X connect 80 0 82 0;
#X connect 80 0 83 0;
#X connect 80 0 84 0;
#X connect 81 0 14 0;
#X connect 82 0 15 0;
#X connect 83 0 16 0;
#X connect 84 0 17 0;
